<?xml version="1.0" standalone="no"?>
<!DOCTYPE svg PUBLIC "-//W3C//DTD SVG 1.1//EN" "http://www.w3.org/Graphics/SVG/1.1/DTD/svg11.dtd" >
<svg xmlns="http://www.w3.org/2000/svg" xmlns:xlink="http://www.w3.org/1999/xlink" version="1.1">
<metadata></metadata>
<defs>
<font id="pf_highway_sans_promedium" horiz-adv-x="1310" >
<font-face units-per-em="2048" ascent="1536" descent="-512" />
<missing-glyph horiz-adv-x="534" />
<glyph horiz-adv-x="0" />
<glyph horiz-adv-x="682" />
<glyph unicode=" "  horiz-adv-x="534" />
<glyph unicode="&#x09;" horiz-adv-x="534" />
<glyph unicode="&#xa0;" horiz-adv-x="534" />
<glyph unicode="!" horiz-adv-x="606" d="M164 131q0 41 14.5 69.5t37 47t50 28t51.5 9.5q66 0 107 -45t41 -107q0 -66 -43.5 -109.5t-106.5 -43.5q-66 0 -108.5 43t-42.5 108zM184 901v432h267v-430l-43 -491h-181z" />
<glyph unicode="&#x22;" horiz-adv-x="890" d="M143 1333h258l-45 -499h-168zM492 1333h260l-45 -499h-170z" />
<glyph unicode="#" d="M31 317l35 201h223l53 305h-223l37 201h223l53 309h223l-53 -309h244l53 309h225l-53 -309h221l-37 -201h-221l-55 -305h223l-35 -201h-223l-57 -317h-223l55 317h-244l-55 -317h-225l57 317h-221zM504 510h258l55 324h-256z" />
<glyph unicode="$" d="M162 197l155 184q74 -68 164 -103.5t174 -35.5q111 0 166.5 40t55.5 109q0 33 -13.5 56.5t-44.5 44t-79 38t-117 37.5q-102 29 -180 60.5t-132.5 74.5t-82 104.5t-27.5 149.5q0 74 25.5 134.5t70.5 106.5t106.5 77t133.5 45v199h215v-193q205 -25 352 -154l-148 -186 q-74 63 -154.5 91t-160.5 28q-94 0 -137 -39t-43 -94q0 -35 19.5 -59.5t51 -43t72.5 -32t84 -25.5q70 -20 150 -47t147.5 -72t111.5 -114.5t44 -176.5q0 -168 -104.5 -264t-284.5 -119v-198h-215v198q-111 16 -207.5 62.5t-167.5 116.5z" />
<glyph unicode="%" horiz-adv-x="1888" d="M41 918q0 86 25.5 163.5t76 136t125 93.5t172.5 35q90 0 165 -32t128 -88.5t82 -135t29 -172.5t-29 -173t-82 -136.5t-128 -89.5t-165 -32q-98 0 -172.5 35t-125 93.5t-76 137t-25.5 165.5zM258 918q0 -111 47 -179.5t135 -68.5q92 0 139.5 68.5t47.5 179.5 q0 117 -48.5 183t-138.5 66q-88 0 -135 -67.5t-47 -181.5zM403 -43l873 1425h205l-873 -1425h-205zM1044 416q0 86 26 163.5t76 137t125 94.5t173 35q90 0 164.5 -32t128 -89t82 -135t28.5 -172q0 -96 -28.5 -175t-82 -135.5t-128 -88t-164.5 -31.5q-98 0 -173 34.5t-125 93 t-76 136.5t-26 164zM1262 418q0 -113 47 -180.5t135 -67.5q92 0 139 67.5t47 178.5q0 117 -48 183.5t-138 66.5q-88 0 -135 -67t-47 -181z" />
<glyph unicode="&#x26;" horiz-adv-x="1562" d="M150 430q0 127 66.5 242.5t189.5 201.5q-63 57 -98.5 122t-35.5 134q0 45 17.5 98.5t55.5 98.5t99.5 75t149.5 30q68 0 126 -20.5t101 -59.5t66.5 -93.5t23.5 -123.5q0 -53 -18.5 -100.5t-46 -87.5t-60 -72.5t-61.5 -55.5q29 -29 49.5 -55.5t30.5 -54.5q114 98 309 98 q88 0 186.5 -13.5t169.5 -33.5q-10 -45 -18 -87t-16 -87q-29 6 -51.5 10t-43 7t-42 4t-48.5 3q0 -16 1 -36.5t1 -38.5q0 -147 -48 -253t-127 -174.5t-181 -101.5t-213 -33q-133 0 -233.5 38t-167 101.5t-100 146.5t-33.5 171zM391 430q0 -37 12.5 -81t45 -82t90 -63.5 t149.5 -25.5q88 0 150.5 32t101.5 84t56.5 118.5t17.5 136.5v30.5t-4 28.5q-66 -8 -124.5 -56t-117.5 -165l-156 72q16 33 25.5 57.5t9.5 46.5q0 29 -21.5 66t-76.5 92q-68 -49 -113 -130t-45 -161zM504 1133q0 -55 22.5 -94.5t57.5 -73.5q53 35 77.5 80t24.5 90 q0 41 -22.5 75.5t-73.5 34.5q-12 0 -27.5 -4t-28 -16.5t-21.5 -35t-9 -56.5z" />
<glyph unicode="'" horiz-adv-x="540" d="M143 1333h258l-45 -499h-168z" />
<glyph unicode="(" horiz-adv-x="716" d="M80 580q0 127 30.5 251.5t82 238.5t120 214t144.5 178l168 -129q-63 -80 -115.5 -171t-90.5 -188t-58.5 -194.5t-20.5 -189.5q0 -100 20.5 -199.5t56.5 -194t87 -182.5t112 -164l-161 -129q-76 76 -143.5 173.5t-119 208t-82 232.5t-30.5 245z" />
<glyph unicode=")" horiz-adv-x="714" d="M84 1333l168 129q76 -78 144.5 -178t119.5 -214t82 -238.5t31 -251.5q0 -123 -31 -245t-82 -232.5t-118.5 -208t-143.5 -173.5l-162 129q61 76 112.5 164t87.5 182.5t56.5 194t20.5 199.5q0 92 -20.5 189.5t-58.5 194.5t-90.5 188t-115.5 171z" />
<glyph unicode="*" horiz-adv-x="974" d="M141 1012l58 180l217 -92l-25 233h199q-4 -59 -10.5 -116.5t-12.5 -116.5l215 92q16 -45 29.5 -90t28.5 -90l-228 -56q37 -45 76 -89t78 -89l-158 -114l-119 200q-31 -49 -61.5 -100t-60.5 -102l-154 116l156 178z" />
<glyph unicode="+" d="M193 528v217h342v345h233v-345h344v-217h-344v-338h-233v338h-342z" />
<glyph unicode="," horiz-adv-x="524" d="M94 129q0 66 43 112t109 46q78 0 124 -56.5t46 -148.5q0 -123 -67.5 -211t-166.5 -147q-18 23 -36.5 46t-34.5 46q53 37 84.5 79t42.5 95q-59 0 -101.5 34.5t-42.5 104.5z" />
<glyph unicode="-" horiz-adv-x="780" d="M113 508v233h555v-233h-555z" />
<glyph unicode="." horiz-adv-x="526" d="M109 133q0 74 49 115t106 41q66 0 108 -45t42 -111t-44.5 -111t-107.5 -45q-66 0 -109.5 45.5t-43.5 110.5z" />
<glyph unicode="/" horiz-adv-x="1030" d="M-8 -158l792 1639h244l-795 -1639h-241z" />
<glyph unicode="0" d="M70 666q0 137 37.5 262t111.5 219t183.5 150.5t254.5 56.5q133 0 242 -50.5t186.5 -141.5t120.5 -217t43 -277q0 -154 -43 -280t-120.5 -217t-186.5 -141t-242 -50q-145 0 -254.5 55t-183.5 148t-111.5 218t-37.5 265zM344 668q0 -100 20.5 -183.5t59.5 -143.5t97.5 -93 t135.5 -33q78 0 137.5 33t99.5 92t60.5 142t20.5 184q0 209 -82 330.5t-236 121.5t-233.5 -122t-79.5 -328z" />
<glyph unicode="1" d="M391 997v177q102 8 149.5 47t69.5 112h230v-1333h-269v997h-180z" />
<glyph unicode="2" d="M125 0q6 150 54 264.5t123 202.5t169 155.5t193 127.5q57 35 97 61.5t64.5 51t34.5 50t10 56.5q0 72 -55 112.5t-162 40.5q-86 0 -174 -33.5t-174 -101.5l-141 184q102 90 232 136.5t270 46.5q106 0 193 -24.5t149.5 -72t97.5 -116t35 -154.5q0 -68 -18.5 -124 t-59.5 -105t-105.5 -95.5t-156.5 -95.5q-90 -49 -150.5 -91t-100.5 -81t-62.5 -79t-36.5 -89h698v-227h-1024z" />
<glyph unicode="3" d="M94 184l170 168q76 -76 160 -108.5t176 -32.5q55 0 103.5 13.5t84 38t56 60t20.5 80.5q0 94 -60.5 140.5t-160.5 46.5h-135v201h131q37 0 73 13t63.5 36.5t44 55.5t16.5 67q0 27 -11.5 55.5t-38 52t-70.5 37.5t-108 14q-80 0 -160.5 -30.5t-154.5 -90.5q-35 45 -71 89.5 t-70 91.5q92 82 216 127t259 45q109 0 197.5 -25.5t151 -73t97.5 -114t35 -148.5q0 -98 -50 -175t-151 -122v-4q55 -14 98.5 -45t73 -70.5t45 -86t15.5 -91.5q0 -100 -42 -178t-115 -132t-171 -81.5t-209 -27.5q-154 0 -285 53t-223 151z" />
<glyph unicode="4" d="M84 279v204l711 850h268v-835h174v-219h-174v-279h-252v279h-727zM385 498h426v506z" />
<glyph unicode="5" d="M123 119l113 200q94 -53 195 -81.5t192 -28.5q135 0 216 59.5t81 175.5q0 109 -72 161t-178 52q-72 0 -138.5 -23.5t-121.5 -62.5l-240 88l49 674h881v-225h-651l-23 -283q0 -2 4 -2q129 61 272 62q115 0 205 -31t151.5 -87t94.5 -135t33 -177q0 -121 -41 -210 t-116 -147.5t-178 -88t-228 -29.5q-139 0 -261 33.5t-239 105.5z" />
<glyph unicode="6" d="M111 516q0 86 18 180.5t60 186.5t111 175t168 146.5t231 103.5t305 46v-228q-115 -6 -205 -26.5t-162 -63.5t-126 -109.5t-95 -160.5h4q68 47 141.5 65.5t159.5 18.5q96 0 182 -25.5t151.5 -77t103.5 -129.5t38 -184q0 -111 -41 -195.5t-114.5 -142t-176 -87 t-225.5 -29.5q-113 0 -210 30.5t-168 96t-110.5 167t-39.5 242.5zM375 422q0 -45 17.5 -85t52 -70.5t86 -48t118.5 -17.5q135 0 209 61.5t74 161.5q0 102 -72 157.5t-198 55.5q-133 0 -210 -59.5t-77 -155.5z" />
<glyph unicode="7" d="M147 1108v225h1004v-219q-211 -217 -331 -491.5t-122 -622.5h-266q4 315 109.5 603t310.5 505h-705z" />
<glyph unicode="8" d="M96 393q0 104 59.5 192.5t172.5 129.5v2q-51 23 -85 54.5t-53.5 66t-26.5 70.5t-7 67q0 94 37.5 164.5t105.5 119t159 72t199 23.5q102 0 193.5 -23.5t159 -71t107.5 -118t40 -164.5q0 -29 -8 -64.5t-28.5 -70.5t-54.5 -68t-85 -55v-2q113 -41 173 -127t60 -197 q0 -199 -149.5 -306t-411.5 -107q-266 0 -411.5 107.5t-145.5 305.5zM362 401q0 -98 75 -153t218 -55q145 0 220 56t75 146q0 98 -73.5 153.5t-223.5 55.5q-137 0 -214 -54t-77 -149zM420 971q0 -74 63.5 -121t173.5 -47q113 0 173.5 47t60.5 117t-55.5 123t-182.5 53 q-123 0 -178 -51.5t-55 -120.5z" />
<glyph unicode="9" d="M106 897q0 111 41 196t115 143t176.5 88t225.5 30q113 0 210 -32t167.5 -97.5t110.5 -167t40 -242.5q0 -131 -43 -274.5t-146.5 -266t-275.5 -204.5t-430 -90v227q115 4 206 25.5t161.5 63.5t125 107.5t95.5 159.5l-4 4q-72 -51 -150 -68.5t-153 -17.5q-96 0 -182.5 25.5 t-151 77t-101.5 129.5t-37 184zM367 907q0 -104 73.5 -158.5t198.5 -54.5q135 0 211 59.5t76 155.5q0 45 -17.5 85t-52.5 71t-86 48t-121 17q-135 0 -208.5 -61t-73.5 -162z" />
<glyph unicode=":" horiz-adv-x="530" d="M113 133q0 74 49 115t106 41q66 0 108 -45t42 -111t-44.5 -111t-107.5 -45q-66 0 -109.5 45.5t-43.5 110.5zM113 721q0 76 49 116t106 40q66 0 108 -45.5t42 -110.5q0 -66 -44.5 -111t-107.5 -45q-66 0 -109.5 45t-43.5 111z" />
<glyph unicode=";" horiz-adv-x="536" d="M113 129q0 68 43 113t108 45q76 0 122 -55.5t46 -147.5q0 -125 -66.5 -214t-166.5 -149l-72 95q53 37 86 79t41 95q-59 -4 -100 34.5t-41 104.5zM119 721q0 76 48 116t105 40q66 0 109 -45.5t43 -110.5q0 -66 -44.5 -111t-107.5 -45q-66 0 -109.5 45t-43.5 111z" />
<glyph unicode="&#x3c;" d="M225 565v183l840 419v-252l-549 -256l549 -274v-254z" />
<glyph unicode="=" d="M205 324v221h889v-221h-889zM205 756v219h889v-219h-889z" />
<glyph unicode="&#x3e;" d="M229 131v254l549 274l-549 256v252l840 -419v-183z" />
<glyph unicode="?" horiz-adv-x="1060" d="M72 901q2 109 42 193t104.5 141t148.5 87t176 30q98 0 178 -29t136 -78t87 -116.5t31 -147.5q0 -92 -39 -157.5t-84 -112.5q-35 -35 -68.5 -68t-59.5 -67.5t-43 -76.5t-19 -98h-252q2 113 32.5 181.5t89.5 132.5q25 29 55.5 59.5t57.5 63t45.5 67.5t18.5 72 q0 23 -10.5 48.5t-32 47t-55 34.5t-79.5 13q-53 0 -89.5 -20.5t-60.5 -53t-37 -70.5t-15 -75h-258zM383 129q0 41 14.5 69.5t37 47t50 28t54.5 9.5q66 0 105.5 -45t39.5 -107q0 -66 -43 -108.5t-106 -42.5q-66 0 -109 41.5t-43 107.5z" />
<glyph unicode="@" horiz-adv-x="1792" d="M133 676q0 162 60.5 300t167 239.5t252 160t315.5 58.5q164 0 298 -48.5t229 -134.5t147.5 -205.5t52.5 -265.5q0 -127 -37 -223t-96.5 -162.5t-136 -100.5t-156.5 -34q-72 0 -129.5 29.5t-77.5 81.5h-6q-45 -53 -100.5 -77t-114.5 -24q-53 0 -103.5 19.5t-90.5 59.5 t-64.5 103.5t-24.5 149.5q0 119 28.5 204t77 140t109 82t123.5 27q102 0 180 -74h2l6 59h193q-10 -129 -21.5 -257t-21.5 -257v-12q0 -43 21.5 -61.5t46.5 -18.5q37 0 73.5 23.5t66.5 66.5t48 105.5t18 142.5q0 119 -43 212t-116.5 157.5t-172 98.5t-208.5 34 q-131 0 -243 -46t-193.5 -127t-128 -190.5t-46.5 -234.5q0 -135 45.5 -247t126 -190.5t194.5 -121.5t251 -43q63 0 117.5 5t106.5 16t103.5 29.5t110.5 43.5l58 -156q-119 -45 -235 -71.5t-253 -26.5q-172 0 -320.5 52t-257 150.5t-170 240t-61.5 319.5zM733 618 q0 -88 34 -130t93 -42q33 0 70 20.5t61 49.5l27 291q-23 29 -55.5 50.5t-73.5 21.5q-74 0 -115 -73t-41 -188z" />
<glyph unicode="A" horiz-adv-x="1368" d="M33 0l506 1333h307l508 -1333h-291l-100 283h-549l-99 -283h-282zM489 500h398l-121 344q-6 16 -15.5 45t-20.5 60.5t-21.5 62t-16.5 51.5h-6q-6 -20 -18.5 -57t-25.5 -75t-24.5 -73t-17.5 -51z" />
<glyph unicode="B" horiz-adv-x="1275" d="M127 0v1333h596q92 0 167 -21.5t128 -64.5t82.5 -105.5t29.5 -144.5q0 -96 -53 -167.5t-125 -102.5v-6q45 -14 87 -43t74 -69t51.5 -91t19.5 -110q0 -193 -122 -300.5t-345 -107.5h-590zM397 236h297q209 0 209 180q0 92 -60.5 135t-148.5 43h-297v-358zM397 819h293 q78 0 123 39t45 105t-42 101.5t-122 35.5h-297v-281z" />
<glyph unicode="C" horiz-adv-x="1198" d="M90 672q0 156 42 282.5t119 216t186.5 137.5t246.5 48q160 0 271.5 -57.5t189.5 -155.5l-195 -174q-63 76 -128.5 107.5t-139.5 31.5q-76 0 -133 -33t-97 -91t-60.5 -138t-20.5 -176q0 -94 19.5 -175t59 -141.5t99 -95.5t137.5 -35q74 0 143.5 36t135.5 114l192 -166 q-78 -98 -191.5 -164t-285.5 -66q-135 0 -243.5 48.5t-185.5 138.5t-119 218t-42 290z" />
<glyph unicode="D" horiz-adv-x="1318" d="M133 0v1333h410q139 0 262 -35.5t215 -115.5t145.5 -207t53.5 -307t-54.5 -307.5t-147.5 -207t-218 -116.5t-267 -37h-399zM406 236h116q209 0 313.5 110.5t104.5 319.5q0 207 -104.5 319.5t-315.5 112.5h-114v-862z" />
<glyph unicode="E" horiz-adv-x="1124" d="M125 0v1333h940v-233h-670v-283h469v-235h-469v-346h692v-236h-962z" />
<glyph unicode="F" horiz-adv-x="1087" d="M133 0v1333h942v-235h-672v-303h476v-236h-476v-559h-270z" />
<glyph unicode="G" horiz-adv-x="1290" d="M84 668q0 158 42 283.5t119 214.5t186.5 137.5t244.5 48.5q154 0 264.5 -53.5t194.5 -159.5q-51 -43 -101.5 -86t-101.5 -88q-59 78 -125 108.5t-137 30.5q-76 0 -133.5 -33t-95.5 -91t-57 -139t-19 -175q0 -211 80.5 -328t234.5 -117q74 0 124 22.5t80.5 60.5t44 87 t15.5 103h-205v213h478v-168q0 -129 -36 -232.5t-105.5 -176.5t-171 -111.5t-230.5 -38.5q-141 0 -252 49t-185.5 138t-113.5 216t-39 285z" />
<glyph unicode="H" horiz-adv-x="1343" d="M123 0v1333h272v-526h551v526h273v-1333h-273v569h-551v-569h-272z" />
<glyph unicode="I" horiz-adv-x="573" d="M150 0v1333h274v-1333h-274z" />
<glyph unicode="J" horiz-adv-x="1208" d="M41 352l256 86q41 -111 99.5 -164t156.5 -53q127 0 183.5 78t56.5 238v796h272v-801q0 -270 -126 -412.5t-386 -142.5q-109 0 -193 26t-145 74t-104 117.5t-70 157.5z" />
<glyph unicode="K" horiz-adv-x="1265" d="M123 0v1333h270v-604h6l131 172l344 432h312l-389 -477l458 -856h-309l-332 633l-221 -271v-362h-270z" />
<glyph unicode="L" horiz-adv-x="1060" d="M123 0v1333h270v-1097h651v-236h-921z" />
<glyph unicode="M" horiz-adv-x="1544" d="M127 0v1333h270l195 -409l174 -377h10l166 360l203 426h268v-1333h-266v776h-6l-150 -317l-223 -459l-207 430l-162 346h-6v-776h-266z" />
<glyph unicode="N" horiz-adv-x="1337" d="M121 0v1333h254l344 -514l227 -356h6v870h269v-1333h-242l-383 573l-201 314h-6v-887h-268z" />
<glyph unicode="O" horiz-adv-x="1359" d="M90 664q0 147 38 274t112.5 219t184.5 144.5t255 52.5q137 0 246.5 -49.5t186.5 -140.5t117 -218t40 -280q0 -156 -40 -283t-117 -217t-186.5 -139.5t-248.5 -49.5q-145 0 -255 52.5t-183.5 143.5t-111.5 217t-38 274zM371 668q0 -96 19.5 -177t58 -141.5t96 -94.5 t135.5 -34t136 36t96 96.5t57.5 141t19.5 171.5q0 96 -19.5 178t-58.5 141t-97 92t-136 33t-135.5 -33t-96 -92t-57 -140t-18.5 -177z" />
<glyph unicode="P" horiz-adv-x="1183" d="M123 0v1333h577q100 0 185.5 -25.5t147 -78.5t95 -133.5t33.5 -186.5q0 -111 -34.5 -192.5t-98 -136t-150.5 -81t-192 -26.5h-295v-473h-268zM391 707h295q92 4 144.5 51t52.5 145q0 102 -60.5 149.5t-154.5 47.5h-277v-393z" />
<glyph unicode="Q" horiz-adv-x="1366" d="M94 666q0 158 41 284.5t117 216.5t185.5 138.5t246.5 48.5q139 0 248.5 -49.5t185.5 -138.5t116 -215.5t40 -282.5q0 -168 -49 -302.5t-142 -230.5l93 -133q-47 -29 -93.5 -60.5t-93.5 -62.5l-96 137q-53 -16 -104.5 -25t-106.5 -9q-137 0 -246.5 48t-185.5 137t-116 215 t-40 284zM373 670q0 -100 19.5 -182t57 -140.5t94 -92.5t130.5 -36q12 0 34.5 2t39.5 8l-80 121l174 123l76 -113q45 66 62 142t17 166q0 98 -19.5 179t-59 139t-98 91t-138.5 33q-78 0 -136.5 -33t-96 -91t-57 -139t-19.5 -177z" />
<glyph unicode="R" horiz-adv-x="1257" d="M125 0v1333h592q98 0 182 -25.5t145.5 -76.5t96.5 -131.5t35 -186.5q0 -154 -69 -250t-189 -137l245 -526h-284l-215 489h-271v-489h-268zM393 721h295q100 0 154.5 48t54.5 144q0 92 -57.5 139.5t-149.5 47.5h-297v-379z" />
<glyph unicode="S" horiz-adv-x="1171" d="M82 170l164 192q80 -72 175 -108.5t185 -36.5q233 0 234 156q0 68 -60.5 105.5t-210.5 78.5q-106 31 -189 63.5t-139.5 78.5t-86 109.5t-29.5 156.5q0 92 39 164.5t104.5 123t153.5 77t186 26.5q141 0 260 -43t213 -123l-155 -197q-78 66 -163 95.5t-171 29.5 q-100 0 -146.5 -41t-46.5 -98q0 -37 20.5 -62.5t54.5 -44t77 -33t90 -28.5q74 -20 158 -48t155.5 -75t118.5 -119.5t47 -185.5q0 -98 -36.5 -174t-105.5 -127t-165 -78t-215 -27q-152 0 -287 51.5t-229 141.5z" />
<glyph unicode="T" horiz-adv-x="1107" d="M35 1100v233h1048v-233h-389v-1100h-270v1100h-389z" />
<glyph unicode="U" horiz-adv-x="1333" d="M125 563v770h272v-760q0 -166 69 -258t204 -92q141 0 207.5 88t66.5 252v770h275v-772q0 -147 -39 -255.5t-111 -181.5t-174 -108.5t-229 -35.5q-125 0 -225.5 36.5t-170 109.5t-107.5 182.5t-38 254.5z" />
<glyph unicode="V" horiz-adv-x="1318" d="M41 1333h295l223 -669l107 -345h8l104 347l221 667h291l-473 -1333h-301z" />
<glyph unicode="W" horiz-adv-x="1697" d="M43 1333h287q10 -57 21 -118.5t27.5 -145.5t38 -200.5t54.5 -282.5l35 -203h8q10 51 20.5 101.5t20.5 101.5q43 186 85 372.5t83 374.5h264l172 -755q10 -49 19.5 -97.5t19.5 -97.5h6l35 195q33 174 70 370.5t73 384.5h281l-301 -1333h-293q-45 186 -88 371.5t-86 371.5 l-39 183h-4l-39 -176q-47 -193 -91 -384.5t-87 -365.5h-291q-74 336 -149.5 666.5t-151.5 666.5z" />
<glyph unicode="X" horiz-adv-x="1230" d="M39 0l432 684l-408 649h306l247 -434l250 434h299l-407 -645l430 -688h-303l-273 473l-270 -473h-303z" />
<glyph unicode="Y" horiz-adv-x="1280" d="M8 1333h301l166 -325l166 -326l168 330l164 321h299l-498 -874v-459h-270v457z" />
<glyph unicode="Z" horiz-adv-x="1191" d="M78 0v219l727 881h-688v233h1007v-221l-727 -876h729v-236h-1048z" />
<glyph unicode="[" horiz-adv-x="720" d="M135 -248v1673h494v-215h-238v-1243h238v-215h-494z" />
<glyph unicode="\" horiz-adv-x="1030" d="M-8 1481h244l792 -1639h-242z" />
<glyph unicode="]" horiz-adv-x="729" d="M127 -33h238v1243h-238v215h494v-1673h-494v215z" />
<glyph unicode="^" horiz-adv-x="1136" d="M98 659l377 674h195l372 -674h-256l-219 437l-213 -437h-256z" />
<glyph unicode="_" horiz-adv-x="1024" d="M0 -139h1024v-185h-1024v185z" />
<glyph unicode="`" horiz-adv-x="1036" d="M260 1483l256 47l158 -377l-142 -45z" />
<glyph unicode="a" horiz-adv-x="1052" d="M68 305q0 80 30.5 141.5t84 102.5t122 62.5t146.5 21.5q61 0 117.5 -9.5t119.5 -37.5v67q0 160 -184 160q-70 0 -135.5 -16.5t-132.5 -48.5l-72 190q82 41 176 62.5t199 21.5q199 0 301 -88t102 -264v-670h-254v82l-4 2q-66 -61 -142.5 -84t-133.5 -23q-66 0 -127.5 18.5 t-108.5 57.5t-75.5 101.5t-28.5 150.5zM328 315q0 -66 42 -101.5t117 -35.5q51 0 106.5 26.5t94.5 65.5v131q-39 23 -85 38.5t-107 15.5q-72 0 -120 -36t-48 -104z" />
<glyph unicode="b" horiz-adv-x="1107" d="M109 0v1352l258 102v-536h8q117 102 256 102q76 0 146.5 -27.5t123.5 -89t85 -160t32 -239.5q0 -131 -33 -229.5t-87 -164t-126 -98t-151 -32.5q-66 0 -130.5 25.5t-117.5 78.5h-6v-84h-258zM367 303q35 -43 85 -75.5t109 -32.5q86 0 140.5 79.5t54.5 225.5 q0 166 -52.5 234.5t-146.5 68.5q-57 0 -106.5 -32t-83.5 -69v-399z" />
<glyph unicode="c" horiz-adv-x="964" d="M90 494q0 121 33 218t92 165.5t145 105.5t195 37q102 0 192.5 -36t165.5 -122l-155 -166q-53 57 -98.5 80t-102.5 23q-98 0 -151.5 -82t-53.5 -217t51.5 -217t157.5 -82q104 0 205 108l158 -157q-147 -172 -373 -172q-106 0 -191.5 34.5t-145.5 101t-92 162t-32 216.5z " />
<glyph unicode="d" horiz-adv-x="1107" d="M88 481q0 137 35 238.5t92 168t130 99.5t149 33q78 0 135 -25.5t104 -70.5h8v426l258 104v-1454h-258v86h-6q-59 -57 -125.5 -81.5t-138.5 -24.5q-78 0 -146.5 26.5t-121.5 87t-84 155.5t-31 232zM352 481q0 -152 51.5 -219t141.5 -67q59 0 109.5 31.5t86.5 74.5v397 q-35 41 -84 73t-108 32q-94 0 -145.5 -81t-51.5 -241z" />
<glyph unicode="e" horiz-adv-x="1071" d="M90 500q0 119 34 215t95.5 163.5t147.5 104.5t190 37q113 0 196 -38t138 -105.5t81.5 -163t26.5 -209.5v-82h-647q10 -113 71.5 -172.5t160.5 -59.5q59 0 122.5 23t114.5 57l113 -166q-88 -70 -179 -97t-196 -27q-109 0 -196 35.5t-147 103t-93 164t-33 217.5zM352 590 h389q-2 94 -46 158.5t-148 64.5q-74 0 -130.5 -59.5t-64.5 -163.5z" />
<glyph unicode="f" horiz-adv-x="702" d="M61 803v196h125v175q0 141 81 207.5t220 66.5q18 0 41 -1t47.5 -3t48 -5t40.5 -7l-9 -209q-27 2 -44 2h-36q-59 0 -94 -17.5t-35 -70.5v-138h205v-196h-205v-803h-260v803h-125z" />
<glyph unicode="g" horiz-adv-x="1110" d="M90 496q0 131 32 229t86 162.5t124.5 96.5t150.5 32q150 0 252 -103q2 0 3 1t3 1v84h260v-913q0 -94 -25.5 -178t-82.5 -153.5t-148.5 -121t-222.5 -77.5l-80 208q104 31 165 68t91.5 75t38.5 73.5t8 66.5v51h-8q-66 -59 -127 -81.5t-139 -22.5q-74 0 -143.5 27.5 t-121.5 87t-84 155.5t-32 232zM352 506q0 -162 51.5 -230.5t147.5 -68.5q57 0 106.5 31.5t83.5 70.5v387q-35 41 -85 74t-109 33q-86 0 -140.5 -77t-54.5 -220z" />
<glyph unicode="h" horiz-adv-x="1095" d="M109 0v1352l260 100v-553h6q55 59 129 90t145 31q182 0 264 -107.5t82 -289.5v-623h-258v575q0 45 -10 85t-31.5 71t-54.5 48.5t-78 17.5q-70 0 -118 -39t-66 -105q-10 -41 -10 -90v-563h-260z" />
<glyph unicode="i" horiz-adv-x="552" d="M125 1274q0 63 44 108t110 45q61 0 106 -45t45 -108q0 -61 -45 -106.5t-106 -45.5q-66 0 -110 45.5t-44 106.5zM150 0v999h258v-999h-258z" />
<glyph unicode="j" horiz-adv-x="555" d="M-49 -227q70 12 111.5 27.5t63 40t28 60.5t6.5 89v1009h258v-1028q0 -102 -22.5 -179t-76 -128t-139.5 -75.5t-213 -24.5zM135 1274q0 63 45 108t109 45q61 0 106 -45t45 -108q0 -61 -45 -106.5t-106 -45.5q-63 0 -108.5 45.5t-45.5 106.5z" />
<glyph unicode="k" horiz-adv-x="1042" d="M109 0v1352l258 100v-834h4q8 8 23.5 29t32.5 43.5t30.5 41t17.5 22.5l195 243h307l-277 -325l320 -672h-289l-209 469l-155 -188v-281h-258z" />
<glyph unicode="l" horiz-adv-x="507" d="M125 0v1352l258 104v-1456h-258z" />
<glyph unicode="m" horiz-adv-x="1652" d="M109 0v999h260v-106h6q53 63 122.5 95t139.5 32q104 0 168.5 -41t99.5 -111q84 88 166 120t154 32q88 0 150.5 -27.5t102.5 -80t57 -125t17 -164.5v-623h-260v578q0 104 -31.5 162.5t-123.5 58.5q-61 0 -103.5 -36t-58.5 -95q-14 -35 -14 -93v-575h-261v578 q0 104 -31.5 162.5t-123.5 58.5q-63 0 -105.5 -39t-58.5 -98q-12 -41 -12 -97v-565h-260z" />
<glyph unicode="n" horiz-adv-x="1095" d="M109 0v999h258v-106h8q53 61 128 94t144 33q184 0 266 -107.5t82 -289.5v-623h-260v575q0 106 -41 164t-133 58q-70 0 -118 -39t-64 -105q-4 -18 -8 -41.5t-4 -48.5v-563h-258z" />
<glyph unicode="o" horiz-adv-x="1132" d="M90 498q0 123 35 220t98.5 163.5t151.5 102.5t192 36t192.5 -36t151 -103.5t97 -163.5t34.5 -215q0 -123 -35.5 -220.5t-99 -165t-152 -103.5t-192.5 -36q-109 0 -195.5 37t-148 104.5t-95.5 164t-34 215.5zM352 502q0 -147 55.5 -228t159.5 -81q51 0 91 23.5t67 65.5 t41 97t14 119q0 137 -55 222t-164 85q-102 0 -155.5 -86t-53.5 -217z" />
<glyph unicode="p" horiz-adv-x="1112" d="M109 -420v1419h258v-86h6q57 53 124.5 80t137.5 27q78 0 147.5 -29.5t122.5 -92t84 -162t31 -236.5t-36 -235.5t-93 -161t-130 -92t-147 -29.5q-78 0 -136 23.5t-105 70.5h-6v-393q-66 -25 -129.5 -50.5t-128.5 -52.5zM367 301q35 -43 84 -73.5t106 -30.5 q96 0 147.5 73.5t51.5 233.5q-2 154 -53.5 227.5t-141.5 73.5q-59 0 -109.5 -32t-84.5 -75v-397z" />
<glyph unicode="q" horiz-adv-x="1105" d="M90 489q0 133 32 232.5t87 166t126.5 99.5t151.5 33q70 0 134.5 -26.5t115.5 -80.5h6v86h256v-1316l-258 -101v500h-6q-121 -102 -260 -102q-78 0 -147.5 27.5t-122.5 89t-84 157.5t-31 235zM354 500q0 -166 51.5 -234.5t145.5 -68.5q57 0 106.5 31.5t83.5 68.5v399 q-35 43 -85 76t-109 33q-86 0 -139.5 -80t-53.5 -225z" />
<glyph unicode="r" horiz-adv-x="806" d="M127 0v999h260v-125h4q47 76 117 111t147 35q72 0 146 -29q-10 -61 -23.5 -123.5t-23.5 -124.5q-88 16 -152 17q-104 0 -159.5 -49t-55.5 -176v-535h-260z" />
<glyph unicode="s" horiz-adv-x="972" d="M76 88l88 184q84 -47 165 -69.5t146 -22.5q61 0 109.5 21.5t48.5 72.5q0 57 -48 84t-134 54q-170 51 -256 119.5t-86 193.5q0 133 104 214t289 81q197 0 364 -88l-82 -189q-86 47 -157.5 60.5t-118.5 13.5q-63 0 -102 -25.5t-39 -58.5q0 -37 33.5 -63.5t121.5 -51.5 q86 -25 154.5 -52t117 -66t74 -92t25.5 -125q0 -74 -31 -131.5t-86 -95.5t-131 -58.5t-166 -20.5q-104 0 -208.5 30t-194.5 81z" />
<glyph unicode="t" horiz-adv-x="768" d="M51 801v198h154v232l250 98v-330h209v-198h-209v-463q0 -72 24.5 -99.5t89.5 -27.5q25 0 54.5 3t68.5 7l21 -201q-53 -16 -118 -28t-122 -12q-127 0 -199.5 65.5t-72.5 216.5v539h-150z" />
<glyph unicode="u" horiz-adv-x="1091" d="M104 358v641h261v-577q0 -94 40.5 -148.5t126.5 -54.5q63 0 111.5 27.5t69.5 97.5q10 41 10 90v565h260v-999h-260v104h-6q-59 -66 -130 -95t-141 -29q-178 0 -260 97t-82 281z" />
<glyph unicode="v" horiz-adv-x="1040" d="M14 999h267l157 -485l78 -252h8l76 256l156 481h262l-363 -999h-274z" />
<glyph unicode="w" horiz-adv-x="1439" d="M14 999h262l97 -424l49 -251h8l59 251l107 424h242l112 -444l51 -236h7l49 244l100 436h262l-282 -999h-256l-123 477l-45 187h-4l-43 -181l-125 -483h-252z" />
<glyph unicode="x" horiz-adv-x="974" d="M16 0l320 516q-72 121 -146.5 242t-148.5 241h287q41 -74 78.5 -149.5t76.5 -149.5l160 299h283l-297 -477l321 -522h-291l-184 332q-45 -82 -89 -166t-91 -166h-279z" />
<glyph unicode="y" horiz-adv-x="1050" d="M18 999h269l149 -446l84 -283h8l90 283l152 446h258l-508 -1390h-248l131 360z" />
<glyph unicode="z" horiz-adv-x="983" d="M72 0v199q129 147 256 294.5t256 297.5v2l-2 2h-480v204h793v-196l-522 -596l2 -4h528v-203h-831z" />
<glyph unicode="{" horiz-adv-x="753" d="M98 510v164q41 2 66.5 20.5t39 47t18.5 65.5t5 76v231q0 137 72 224t242 87h133v-200h-86q-61 0 -86 -39t-25 -121v-184q0 -104 -38 -180t-115 -105v-6q78 -29 115.5 -102.5t37.5 -184.5v-190q0 -80 24.5 -118t86.5 -38h86v-201h-135q-96 0 -156.5 27t-94.5 74 t-47.5 111.5t-13.5 140.5v194q0 37 -5 73t-19.5 64.5t-40 47t-64.5 22.5z" />
<glyph unicode="|" horiz-adv-x="589" d="M186 -252v1784h238v-1784h-238z" />
<glyph unicode="}" horiz-adv-x="753" d="M106 -43h87q61 0 84.5 38t23.5 118v190q0 111 39 184.5t117 102.5v6q-78 29 -117 104.5t-39 180.5v184q0 86 -24.5 123t-83.5 37h-87v200h111q94 0 158.5 -22.5t103.5 -62.5t55.5 -98t16.5 -128v-252q0 -35 6 -67.5t21.5 -58t41 -43t62.5 -19.5v-164q-41 -4 -65.5 -22.5 t-40 -48t-20.5 -64.5t-5 -72v-262q-6 -127 -77 -206t-234 -79h-134v201z" />
<glyph unicode="~" d="M135 578q29 72 68 119.5t83 77.5t89 42t88 12q57 0 114.5 -17t112.5 -38.5t104.5 -39t88.5 -17.5q49 0 90 26.5t86 85.5l133 -81q-57 -131 -140.5 -187.5t-187.5 -56.5q-47 0 -100 18.5t-106.5 41t-104.5 41t-94 18.5q-53 0 -93 -28t-87 -89z" />
<glyph unicode="&#xa2;" d="M225 498q0 219 100.5 353t280.5 163v217h154v-215q170 -18 291 -158l-156 -164q-53 57 -99 82t-104 25q-98 0 -151.5 -81t-53.5 -214t52.5 -219t158.5 -86q59 0 108.5 27.5t102.5 84.5l154 -155q-119 -147 -303 -172v-222h-154v222q-176 25 -278.5 160t-102.5 352z" />
<glyph unicode="&#xa3;" d="M162 0v207q39 37 67.5 71.5t49 71.5t33 78t16.5 92h-166v193h137q-23 66 -41 129t-18 133q0 74 31.5 142.5t91 120.5t144.5 84t191 32q92 0 164 -16.5t128.5 -48.5t101.5 -79t86 -108q-53 -35 -104.5 -71t-102.5 -73q-51 84 -110.5 124t-151.5 40q-39 0 -76 -12 t-65.5 -34.5t-46 -55.5t-17.5 -74q0 -53 20.5 -113.5t34.5 -117.5h315v-193h-290v-4q0 -158 -115 -295h682v-223h-989z" />
<glyph unicode="&#xa5;" d="M68 1333h303l291 -633l290 633h297l-243 -454h178v-164h-266l-58 -105h324v-164h-391v-446h-271v446h-383v164h314l-56 105h-258v164h170z" />
<glyph unicode="&#xa8;" horiz-adv-x="1032" d="M180 1276q0 55 41 95t96 40q53 0 94.5 -40t41.5 -95q0 -53 -41.5 -93t-94.5 -40q-55 0 -96 40t-41 93zM614 1276q0 55 40 95t98 40q53 0 92 -40t39 -95q0 -53 -39 -93t-92 -40q-57 0 -97.5 40t-40.5 93z" />
<glyph unicode="&#xa9;" horiz-adv-x="1626" d="M121 678q0 150 53 278.5t146.5 223t221.5 148.5t275 54t274.5 -54t221.5 -148.5t147 -223.5t53 -278q0 -150 -53 -279t-147 -223t-221.5 -148.5t-274.5 -54.5t-275 54.5t-221.5 148.5t-146.5 223t-53 279zM268 678q0 -119 42 -221.5t116 -177t174 -117.5t217 -43 t217.5 43t173 117.5t114.5 177t42 221.5t-42 221t-114.5 177t-173 118t-217.5 43t-217 -43t-174 -118t-116 -177t-42 -221zM463 670q0 94 25.5 172t72.5 134t114.5 87t153.5 31q113 0 181.5 -43t113.5 -117l-139 -92q-35 51 -69.5 73.5t-86.5 22.5q-96 0 -142 -76t-46 -194 q0 -115 46 -193t142 -78q53 0 92.5 23.5t73.5 77.5l138 -95q-47 -70 -120 -115.5t-184 -45.5q-86 0 -154.5 30.5t-115.5 88t-71.5 135.5t-24.5 174z" />
<glyph unicode="&#xab;" horiz-adv-x="1132" d="M98 502l291 422h236l-287 -422l287 -420h-236zM528 502l291 422h236l-285 -422l285 -420h-236z" />
<glyph unicode="&#xad;" horiz-adv-x="780" d="M113 508v233h555v-233h-555z" />
<glyph unicode="&#xae;" horiz-adv-x="1089" d="M115 956q0 92 32.5 170t90 134.5t135.5 89t168 32.5t167.5 -32.5t135 -89t90.5 -134t33 -170.5q0 -92 -33 -169.5t-90.5 -134t-135 -89.5t-167.5 -33t-168 33t-135.5 89.5t-90 134t-32.5 169.5zM213 956q0 -72 24.5 -132t68.5 -105t104.5 -70.5t130.5 -25.5t129 25.5 t103 70.5t68.5 105.5t24.5 131.5q0 70 -24.5 131.5t-68.5 106.5t-103 70.5t-129 25.5t-130.5 -25.5t-104.5 -69.5t-68.5 -105.5t-24.5 -133.5zM367 719v481h208q72 0 120 -39t48 -117q0 -51 -23.5 -86.5t-62.5 -52.5l93 -186h-117l-78 170h-78v-170h-110zM477 985h88 q66 0 66 59q0 29 -18.5 43.5t-47.5 14.5h-88v-117z" />
<glyph unicode="&#xb4;" horiz-adv-x="1032" d="M383 1153l158 381l256 -47l-275 -379z" />
<glyph unicode="&#xb8;" horiz-adv-x="1187" d="M420 -410l39 111q43 -16 77.5 -23.5t65.5 -7.5q41 0 68.5 18.5t27.5 51.5q0 35 -25.5 52.5t-64.5 17.5q-10 0 -30 -5l-58 54l72 225l108 -12l-49 -154q66 -4 108 -22.5t66.5 -44t34.5 -55t10 -54.5q0 -31 -11 -64.5t-41 -62.5t-78 -47.5t-119 -18.5q-43 0 -94.5 9.5 t-106.5 31.5z" />
<glyph unicode="&#xbb;" horiz-adv-x="1132" d="M98 82l287 420l-287 422h238l291 -422l-293 -420h-236zM528 82l287 420l-285 422h236l291 -422l-293 -420h-236z" />
<glyph unicode="&#x2c6;" horiz-adv-x="1091" d="M150 1178l292 295h203l291 -295l-102 -88l-295 200l-287 -198z" />
<glyph unicode="&#x2da;" horiz-adv-x="1040" d="M338 1323q0 47 17.5 87t48 69.5t71.5 47t88 17.5t88 -17.5t72 -47t48 -69.5t17 -87q0 -96 -64.5 -158.5t-160.5 -62.5q-47 0 -88 16.5t-71.5 45t-48 69.5t-17.5 90zM469 1325q0 -45 26.5 -72.5t67.5 -27.5t67.5 27.5t26.5 72.5q0 41 -25.5 68.5t-68.5 27.5 q-41 0 -67.5 -28.5t-26.5 -67.5z" />
<glyph unicode="&#x2dc;" horiz-adv-x="1064" d="M141 1190q20 68 50 114t64 72.5t68.5 37.5t67.5 11q37 0 79 -15t83 -34.5t79 -35t68 -15.5q37 0 65 18.5t64 67.5l107 -51q-45 -123 -108.5 -171t-137.5 -48q-35 0 -75 15t-79.5 33.5t-78.5 34t-70 15.5q-35 0 -65.5 -18.5t-69.5 -77.5z" />
<glyph unicode="&#x401;" horiz-adv-x="1124" d="M125 0v1333h940v-233h-670v-283h469v-235h-469v-346h692v-236h-962zM252 1561q0 55 41 95t96 40q53 0 94 -40t41 -95q0 -53 -41 -93.5t-94 -40.5q-55 0 -96 40t-41 94zM686 1561q0 55 40 95t97 40q53 0 92 -40t39 -95q0 -53 -39 -93.5t-92 -40.5q-57 0 -97 40t-40 94z " />
<glyph unicode="&#x402;" horiz-adv-x="1552" d="M29 1100v233h1153v-233h-516v-295q74 51 165 74.5t175 23.5q115 0 201.5 -37t146 -102.5t89.5 -158.5t30 -204q0 -109 -32 -202t-96.5 -160.5t-159.5 -105t-224 -37.5v192q66 8 109.5 38t71 73t39 96t11.5 108q0 125 -57.5 199t-178.5 74q-63 0 -138 -20.5t-152 -77.5 v-578h-267v1100h-370z" />
<glyph unicode="&#x403;" horiz-adv-x="1079" d="M125 0v1333h940v-235h-670v-1098h-270zM412 1511l313 238l197 -170l-414 -178z" />
<glyph unicode="&#x404;" horiz-adv-x="1187" d="M90 672q0 156 42 282.5t119 216t186.5 137.5t246.5 48q160 0 271.5 -57.5t189.5 -155.5l-195 -174q-63 76 -128.5 107.5t-139.5 31.5q-125 0 -202 -85t-99 -226h502v-217h-506q6 -78 29.5 -143.5t63.5 -113t94 -74t122 -26.5q74 0 143.5 36t135.5 114l192 -166 q-78 -98 -191.5 -164t-285.5 -66q-135 0 -243.5 48.5t-185.5 138.5t-119 218t-42 290z" />
<glyph unicode="&#x405;" horiz-adv-x="1171" d="M82 170l164 192q80 -72 175 -108.5t185 -36.5q233 0 234 156q0 68 -60.5 105.5t-210.5 78.5q-106 31 -189 63.5t-139.5 78.5t-86 109.5t-29.5 156.5q0 92 39 164.5t104.5 123t153.5 77t186 26.5q141 0 260 -43t213 -123l-155 -197q-78 66 -163 95.5t-171 29.5 q-100 0 -146.5 -41t-46.5 -98q0 -37 20.5 -62.5t54.5 -44t77 -33t90 -28.5q74 -20 158 -48t155.5 -75t118.5 -119.5t47 -185.5q0 -98 -36.5 -174t-105.5 -127t-165 -78t-215 -27q-152 0 -287 51.5t-229 141.5z" />
<glyph unicode="&#x406;" horiz-adv-x="573" d="M150 0v1333h274v-1333h-274z" />
<glyph unicode="&#x407;" horiz-adv-x="573" d="M-61 1567q0 55 40.5 95t96.5 40q53 0 94 -40t41 -95q0 -53 -41 -93t-94 -40q-55 0 -96 39.5t-41 93.5zM150 0v1333h274v-1333h-274zM373 1567q0 55 40 95t97 40q53 0 92 -40t39 -95q0 -53 -39 -93t-92 -40q-57 0 -97 39.5t-40 93.5z" />
<glyph unicode="&#x408;" horiz-adv-x="1208" d="M41 352l256 86q41 -111 99.5 -164t156.5 -53q127 0 183.5 78t56.5 238v796h272v-801q0 -270 -126 -412.5t-386 -142.5q-109 0 -193 26t-145 74t-104 117.5t-70 157.5z" />
<glyph unicode="&#x409;" horiz-adv-x="1900" d="M53 211q72 8 112 26.5t59.5 61.5t23.5 116.5t4 192.5v723h819v-514h307q213 0 338 -105.5t125 -305.5q0 -102 -32.5 -178t-92 -127.5t-142.5 -76t-183 -24.5h-592v1098h-279v-498q0 -121 -7 -232.5t-45 -197.5t-116 -138t-219 -52q-16 0 -34.5 1t-37.5 3zM1071 236h293 q43 0 81 8t66.5 28.5t45 54t16.5 87.5q0 45 -17.5 77.5t-46 54t-67.5 32t-84 10.5h-287v-352z" />
<glyph unicode="&#x40a;" horiz-adv-x="1890" d="M123 0v1333h272v-514h393v514h273v-514h303q106 0 192 -27.5t147.5 -80t94.5 -129t33 -176.5q0 -109 -36 -186t-99.5 -126t-147.5 -71.5t-180 -22.5h-580v592h-393v-592h-272zM1061 233h293q41 0 78.5 8.5t66.5 29t46.5 54t17.5 87.5q0 92 -58.5 137t-154.5 45h-289v-361 z" />
<glyph unicode="&#x40b;" horiz-adv-x="1544" d="M45 1100v233h1133v-233h-504v-283l2 -2q82 47 171 70.5t167 23.5q94 0 173 -26.5t136 -80.5t89 -136t32 -191v-475h-264v430q0 135 -62.5 193.5t-179.5 58.5q-57 0 -131 -23.5t-133 -74.5v-584h-268v1100h-361z" />
<glyph unicode="&#x40c;" horiz-adv-x="1222" d="M121 0v1333h266v-616l6 -2l492 618h309l-524 -647l520 -686h-328l-469 647l-6 -2v-645h-266zM438 1511l314 238l196 -170l-413 -178z" />
<glyph unicode="&#x40e;" horiz-adv-x="1204" d="M18 1333h289q31 -78 63.5 -154.5t63.5 -154.5l166 -418h12q43 104 84 211t82 211l121 305h287l-453 -1063q-70 -162 -163 -229.5t-203 -67.5h-140v222h78q39 0 77 15t60 66l21 50zM289 1714h178q10 -57 44 -95t97 -38q68 0 99.5 44t31.5 89h183q0 -45 -15.5 -97 t-51.5 -98t-96.5 -77t-150.5 -31q-92 0 -153.5 31t-98.5 77t-52 98t-15 97z" />
<glyph unicode="&#x40f;" horiz-adv-x="1339" d="M121 0v1333h270v-1102h557v1102h271v-1333h-422v-367h-254v367h-422z" />
<glyph unicode="&#x410;" horiz-adv-x="1368" d="M33 0l506 1333h307l508 -1333h-291l-100 283h-549l-99 -283h-282zM489 500h398l-121 344q-6 16 -15.5 45t-20.5 60.5t-21.5 62t-16.5 51.5h-6q-6 -20 -18.5 -57t-25.5 -75t-24.5 -73t-17.5 -51z" />
<glyph unicode="&#x411;" horiz-adv-x="1249" d="M121 0v1333h915v-233h-647v-285h311q104 0 190.5 -24.5t147 -75.5t94 -129t33.5 -183q0 -94 -32.5 -168.5t-93 -127t-144.5 -80t-186 -27.5h-588zM389 229h301q98 0 153.5 45.5t55.5 139.5q0 92 -59.5 136t-151.5 44h-299v-365z" />
<glyph unicode="&#x412;" horiz-adv-x="1275" d="M127 0v1333h596q92 0 167 -21.5t128 -64.5t82.5 -105.5t29.5 -144.5q0 -96 -53 -167.5t-125 -102.5v-6q45 -14 87 -43t74 -69t51.5 -91t19.5 -110q0 -193 -122 -300.5t-345 -107.5h-590zM397 236h297q209 0 209 180q0 92 -60.5 135t-148.5 43h-297v-358zM397 819h293 q78 0 123 39t45 105t-42 101.5t-122 35.5h-297v-281z" />
<glyph unicode="&#x413;" horiz-adv-x="1079" d="M125 0v1333h940v-235h-670v-1098h-270z" />
<glyph unicode="&#x414;" horiz-adv-x="1472" d="M41 227h113q98 78 137 232.5t47 384.5l16 487h932v-1104h131v-563h-250v336h-878v-336h-248v563zM463 231h555v871h-418l-10 -234q-4 -84 -9.5 -173t-17.5 -173t-36.5 -159.5t-63.5 -131.5z" />
<glyph unicode="&#x415;" horiz-adv-x="1124" d="M125 0v1333h940v-233h-670v-283h469v-235h-469v-346h692v-236h-962z" />
<glyph unicode="&#x416;" horiz-adv-x="1835" d="M18 0l478 686l-473 647h307l444 -618l6 2v616h269v-616l6 -2l444 618h307l-473 -647l477 -686h-327l-428 647l-6 -2v-645h-269v645l-6 2l-430 -647h-326z" />
<glyph unicode="&#x417;" horiz-adv-x="1163" d="M18 178l162 172q78 -78 162 -108.5t176 -30.5q135 0 204 58.5t69 142.5q0 96 -62.5 138t-161.5 42h-198v201h190q98 0 160.5 47t62.5 118q0 61 -50 111.5t-165 50.5q-82 0 -174 -26.5t-170 -85.5l-135 178q94 84 226 126t268 42q125 0 216 -27t151.5 -74t89 -109.5 t28.5 -135.5q0 -98 -58.5 -181.5t-162.5 -121.5v-9q61 -18 104 -50t68.5 -71.5t38 -86t12.5 -91.5q0 -102 -41 -181t-114.5 -131t-174 -78.5t-219.5 -26.5q-147 0 -278 50t-224 148z" />
<glyph unicode="&#x418;" horiz-adv-x="1382" d="M121 0v1333h268v-909h8l197 303l399 606h269v-1333h-269v895h-6l-203 -309l-395 -586h-268z" />
<glyph unicode="&#x419;" horiz-adv-x="1382" d="M121 0v1333h268v-909h8l197 303l399 606h269v-1333h-269v895h-6l-203 -309l-395 -586h-268zM358 1726h179q10 -57 43.5 -95t97.5 -38q68 0 99.5 44t31.5 89h182q0 -45 -15 -97t-51 -98t-96.5 -77t-150.5 -31q-92 0 -153.5 31t-98.5 77t-52.5 98t-15.5 97z" />
<glyph unicode="&#x41a;" horiz-adv-x="1222" d="M121 0v1333h266v-616l6 -2l492 618h309l-524 -647l520 -686h-328l-469 647l-6 -2v-645h-266z" />
<glyph unicode="&#x41b;" horiz-adv-x="1275" d="M47 211q72 8 112 26.5t59.5 61.5t23.5 116.5t4 192.5v723h907v-1331h-270v1102h-369v-502q0 -121 -7 -232.5t-45 -197.5t-116 -138t-219 -52q-16 0 -34.5 1t-37.5 3z" />
<glyph unicode="&#x41c;" horiz-adv-x="1544" d="M127 0v1333h270l195 -409l174 -377h10l166 360l203 426h268v-1333h-266v776h-6l-150 -317l-223 -459l-207 430l-162 346h-6v-776h-266z" />
<glyph unicode="&#x41d;" horiz-adv-x="1343" d="M123 0v1333h272v-526h551v526h273v-1333h-273v569h-551v-569h-272z" />
<glyph unicode="&#x41e;" horiz-adv-x="1359" d="M90 664q0 147 38 274t112.5 219t184.5 144.5t255 52.5q137 0 246.5 -49.5t186.5 -140.5t117 -218t40 -280q0 -156 -40 -283t-117 -217t-186.5 -139.5t-248.5 -49.5q-145 0 -255 52.5t-183.5 143.5t-111.5 217t-38 274zM371 668q0 -96 19.5 -177t58 -141.5t96 -94.5 t135.5 -34t136 36t96 96.5t57.5 141t19.5 171.5q0 96 -19.5 178t-58.5 141t-97 92t-136 33t-135.5 -33t-96 -92t-57 -140t-18.5 -177z" />
<glyph unicode="&#x41f;" horiz-adv-x="1343" d="M125 0v1333h1094v-1333h-271v1098h-551v-1098h-272z" />
<glyph unicode="&#x420;" horiz-adv-x="1183" d="M123 0v1333h577q100 0 185.5 -25.5t147 -78.5t95 -133.5t33.5 -186.5q0 -111 -34.5 -192.5t-98 -136t-150.5 -81t-192 -26.5h-295v-473h-268zM391 707h295q92 4 144.5 51t52.5 145q0 102 -60.5 149.5t-154.5 47.5h-277v-393z" />
<glyph unicode="&#x421;" horiz-adv-x="1198" d="M90 672q0 156 42 282.5t119 216t186.5 137.5t246.5 48q160 0 271.5 -57.5t189.5 -155.5l-195 -174q-63 76 -128.5 107.5t-139.5 31.5q-76 0 -133 -33t-97 -91t-60.5 -138t-20.5 -176q0 -94 19.5 -175t59 -141.5t99 -95.5t137.5 -35q74 0 143.5 36t135.5 114l192 -166 q-78 -98 -191.5 -164t-285.5 -66q-135 0 -243.5 48.5t-185.5 138.5t-119 218t-42 290z" />
<glyph unicode="&#x422;" horiz-adv-x="1107" d="M35 1100v233h1048v-233h-389v-1100h-270v1100h-389z" />
<glyph unicode="&#x423;" horiz-adv-x="1204" d="M18 1333h289q31 -78 63.5 -154.5t63.5 -154.5l166 -418h12q43 104 84 211t82 211l121 305h287l-453 -1063q-70 -162 -163 -229.5t-203 -67.5h-140v222h78q39 0 77 15t60 66l21 50z" />
<glyph unicode="&#x424;" horiz-adv-x="1540" d="M90 676q0 117 40 217t111.5 176t171 124t220.5 60v80h268v-80q127 -14 229.5 -60t174 -121t110.5 -174t39 -220t-39 -222.5t-110.5 -177t-174 -121.5t-229.5 -59v-98h-268v100q-121 14 -220.5 61.5t-171 122t-111.5 174t-40 218.5zM354 676q0 -133 65.5 -232.5 t213.5 -130.5v719q-72 -16 -124 -50t-87 -81t-51.5 -105.5t-16.5 -119.5zM901 309q76 14 130 49t89 84.5t50.5 108.5t15.5 125q0 63 -14.5 121.5t-48 106.5t-88 83t-134.5 49v-727z" />
<glyph unicode="&#x425;" horiz-adv-x="1230" d="M39 0l432 684l-408 649h306l247 -434l250 434h299l-407 -645l430 -688h-303l-273 473l-270 -473h-303z" />
<glyph unicode="&#x426;" horiz-adv-x="1376" d="M121 0v1331h268v-1100h555v1100h273v-1104h129v-565h-250v338h-975z" />
<glyph unicode="&#x427;" horiz-adv-x="1275" d="M76 862v471h266v-399q0 -147 65.5 -208.5t196.5 -61.5q27 0 62.5 6t73.5 16t76 26.5t69 39.5v581h270v-1333h-270v516q-80 -35 -177.5 -56.5t-179.5 -21.5q-207 0 -329.5 108.5t-122.5 315.5z" />
<glyph unicode="&#x428;" horiz-adv-x="1765" d="M121 0v1333h272v-1102h355v1102h272v-1102h354v1102h271v-1333h-1524z" />
<glyph unicode="&#x429;" horiz-adv-x="1816" d="M121 0v1333h272v-1104h357v1104h270v-1104h354v1104h273v-1104h129v-567h-252v338h-1403z" />
<glyph unicode="&#x42a;" horiz-adv-x="1527" d="M25 1098v235h663v-516h307q213 0 338 -105.5t125 -305.5q0 -102 -32.5 -178t-92 -127.5t-142.5 -76t-183 -24.5h-592v1098h-391zM688 236h291q43 0 81 8t67.5 28.5t46 54t16.5 87.5q0 45 -17.5 77.5t-46 54t-67.5 32t-84 10.5h-287v-352z" />
<glyph unicode="&#x42b;" horiz-adv-x="1681" d="M119 0l2 1333h270v-516h307q213 0 338 -105.5t125 -305.5q0 -102 -32.5 -178t-92 -127.5t-142.5 -76t-183 -24.5h-592zM391 236h291q43 0 81 8t66.5 28.5t45 54t16.5 87.5q0 90 -62.5 132t-150.5 42h-287v-352zM1284 0v1333h275v-1333h-275z" />
<glyph unicode="&#x42c;" horiz-adv-x="1239" d="M119 0l2 1333h270v-516h307q213 0 338 -105.5t125 -305.5q0 -102 -32.5 -178t-92 -127.5t-142.5 -76t-183 -24.5h-592zM391 236h291q43 0 81 8t66.5 28.5t45 54t16.5 87.5q0 90 -62.5 132t-150.5 42h-287v-352z" />
<glyph unicode="&#x42d;" horiz-adv-x="1212" d="M51 203l189 170q66 -78 135 -114t143 -36q68 0 124 25.5t96 73t64.5 113t31.5 143.5h-498v219h493q-14 137 -94 224t-205 87q-63 0 -129.5 -26.5t-136.5 -100.5l-178 172q45 49 93 87t103.5 63.5t121 39t147.5 13.5q135 0 241.5 -48t180.5 -137.5t111.5 -216t37.5 -282.5 q0 -162 -43 -290t-121.5 -218t-188.5 -138.5t-245 -48.5q-172 0 -284.5 63.5t-188.5 162.5z" />
<glyph unicode="&#x42e;" horiz-adv-x="1751" d="M119 0v1333h272v-522h144q16 117 58 216t110.5 172t166 114t224.5 41q133 0 238.5 -49.5t178 -139.5t111.5 -216.5t39 -280.5q0 -156 -39 -283t-111.5 -218t-178 -140.5t-238.5 -49.5q-135 0 -236.5 46.5t-172.5 127t-109.5 191.5t-49.5 242h-135v-584h-272zM805 668 q0 -98 17.5 -181.5t52 -143.5t90 -93t129.5 -33t128 34t90 93t53 141.5t17 180.5q0 211 -70.5 330.5t-217.5 119.5q-74 0 -128.5 -32.5t-90 -91t-53 -141.5t-17.5 -183z" />
<glyph unicode="&#x42f;" horiz-adv-x="1249" d="M78 903q0 106 34.5 187t97 134.5t146.5 81t183 27.5h587v-1333h-270v489h-264l-221 -489h-289l252 522q-119 43 -187.5 136t-68.5 245zM358 903q0 -96 56.5 -141t156.5 -45h287v387h-287q-92 0 -152.5 -52.5t-60.5 -148.5z" />
<glyph unicode="&#x430;" horiz-adv-x="1052" d="M68 305q0 80 30.5 141.5t84 102.5t122 62.5t146.5 21.5q61 0 117.5 -9.5t119.5 -37.5v67q0 160 -184 160q-70 0 -135.5 -16.5t-132.5 -48.5l-72 190q82 41 176 62.5t199 21.5q199 0 301 -88t102 -264v-670h-254v82l-4 2q-66 -61 -142.5 -84t-133.5 -23q-66 0 -127.5 18.5 t-108.5 57.5t-75.5 101.5t-28.5 150.5zM328 315q0 -66 42 -101.5t117 -35.5q51 0 106.5 26.5t94.5 65.5v131q-39 23 -85 38.5t-107 15.5q-72 0 -120 -36t-48 -104z" />
<glyph unicode="&#x431;" horiz-adv-x="1157" d="M88 592q0 145 21.5 269t75 222.5t142.5 169t224 113.5q53 16 98 26.5t89 19.5t92.5 19.5t105.5 26.5l57 -188q-68 -25 -118 -37t-91 -20.5t-77.5 -16.5t-77.5 -22q-53 -18 -99.5 -45t-82 -63t-59 -85t-30.5 -113l7 -2q20 27 50.5 49.5t66.5 38t74 23.5t75 8 q94 0 175 -32.5t139.5 -95t91 -155t32.5 -208.5q0 -121 -36 -216.5t-100.5 -162t-153.5 -102.5t-197 -36q-137 0 -231.5 51.5t-153 136.5t-84 195.5t-25.5 231.5zM369 473q0 -123 54 -205t165 -82q109 0 161 86t52 222q0 125 -53.5 204.5t-153.5 79.5q-98 0 -161.5 -76.5 t-63.5 -228.5z" />
<glyph unicode="&#x432;" horiz-adv-x="1044" d="M104 0v999h504q68 0 127.5 -16t103.5 -48t69.5 -81t25.5 -115q0 -63 -34 -116.5t-87 -83.5q72 -29 114 -90.5t42 -139.5q0 -137 -94.5 -223t-268.5 -86h-502zM358 201h213q139 0 140 114q0 59 -39 87t-99 28h-215v-229zM358 618h215q51 0 80 26t29 67t-26.5 63.5 t-80.5 22.5h-217v-179z" />
<glyph unicode="&#x433;" horiz-adv-x="909" d="M106 0v999h789v-204h-530v-795h-259z" />
<glyph unicode="&#x434;" horiz-adv-x="1198" d="M37 199h102q39 43 63.5 104.5t40 154.5t24.5 225t20 314h760v-798h100v-500h-232v301h-651v-301h-227v500zM406 199h385v600h-285q-2 -66 -5 -142.5t-12.5 -155.5t-28 -157t-54.5 -145z" />
<glyph unicode="&#x435;" horiz-adv-x="1071" d="M90 500q0 119 34 215t95.5 163.5t147.5 104.5t190 37q113 0 196 -38t138 -105.5t81.5 -163t26.5 -209.5v-82h-647q10 -113 71.5 -172.5t160.5 -59.5q59 0 122.5 23t114.5 57l113 -166q-88 -70 -179 -97t-196 -27q-109 0 -196 35.5t-147 103t-93 164t-33 217.5zM352 590 h389q-2 94 -46 158.5t-148 64.5q-74 0 -130.5 -59.5t-64.5 -163.5z" />
<glyph unicode="&#x436;" horiz-adv-x="1533" d="M25 0l362 537l-360 460h274l338 -442v442h256v-442l338 442h274l-358 -460l364 -537h-288l-330 510v-510h-256v510l-330 -510h-284z" />
<glyph unicode="&#x437;" horiz-adv-x="964" d="M37 131l129 166q68 -63 135.5 -85t132.5 -22q92 0 137 38t45 87q0 61 -45 85t-116 24h-140v166h140q76 0 110.5 36t34.5 72q0 47 -38 79t-113 32q-57 0 -124 -23.5t-116 -66.5q-31 39 -60.5 81t-58.5 83q86 70 185.5 101.5t207.5 31.5q98 0 170 -21.5t118 -57.5t68.5 -84 t22.5 -103q0 -59 -32.5 -119t-110.5 -96l-2 -11q47 -18 77.5 -43.5t49 -56.5t26 -61.5t7.5 -57.5q0 -84 -34 -144.5t-92.5 -99t-137 -58t-169.5 -19.5q-119 0 -227 37.5t-180 109.5z" />
<glyph unicode="&#x438;" horiz-adv-x="1126" d="M102 0v1001h258v-610h11q25 41 49 78t49 76l293 456h258v-1001h-258v590h-10q-27 -39 -51.5 -79t-53.5 -81q-72 -106 -142.5 -216t-144.5 -214h-258z" />
<glyph unicode="&#x439;" horiz-adv-x="1120" d="M102 0v1001h258v-610h11q25 41 49 78t49 76l293 456h258v-1001h-258v590h-10q-27 -39 -51.5 -79t-53.5 -81q-72 -106 -142.5 -216t-144.5 -214h-258zM248 1434h178q10 -57 44 -95.5t97 -38.5q68 0 99.5 44.5t31.5 89.5h183q0 -45 -15.5 -97.5t-51.5 -98.5t-96.5 -77 t-150.5 -31q-92 0 -153.5 31t-98 77t-52 98.5t-15.5 97.5z" />
<glyph unicode="&#x43a;" horiz-adv-x="1021" d="M104 0v997h250v-442l369 442h276l-391 -460l393 -537h-286l-361 510v-510h-250z" />
<glyph unicode="&#x43b;" horiz-adv-x="1071" d="M23 190q66 8 102.5 25.5t54 56.5t21.5 106.5t4 176.5v444h760v-999h-258v799h-256v-252q0 -109 -7.5 -211.5t-41 -181t-105.5 -126.5t-201 -48q-16 0 -32.5 1t-32.5 3z" />
<glyph unicode="&#x43c;" horiz-adv-x="1277" d="M100 0v999h254q72 -139 143.5 -278t139.5 -277h8q68 139 136.5 276.5t136.5 278.5h253v-999h-256v520h-6l-75 -149l-199 -373l-193 367l-82 159h-4v-524h-256z" />
<glyph unicode="&#x43d;" horiz-adv-x="1124" d="M109 0v1001h258v-380h389v380h258v-1001h-258v416h-389v-416h-258z" />
<glyph unicode="&#x43e;" horiz-adv-x="1132" d="M90 498q0 123 35 220t98.5 163.5t151.5 102.5t192 36t192.5 -36t151 -103.5t97 -163.5t34.5 -215q0 -123 -35.5 -220.5t-99 -165t-152 -103.5t-192.5 -36q-109 0 -195.5 37t-148 104.5t-95.5 164t-34 215.5zM352 502q0 -147 55.5 -228t159.5 -81q51 0 91 23.5t67 65.5 t41 97t14 119q0 137 -55 222t-164 85q-102 0 -155.5 -86t-53.5 -217z" />
<glyph unicode="&#x43f;" horiz-adv-x="1114" d="M109 0v1001h897v-1001h-258v795h-381v-795h-258z" />
<glyph unicode="&#x440;" horiz-adv-x="1112" d="M109 -420v1419h258v-86h6q57 53 124.5 80t137.5 27q78 0 147.5 -29.5t122.5 -92t84 -162t31 -236.5t-36 -235.5t-93 -161t-130 -92t-147 -29.5q-78 0 -136 23.5t-105 70.5h-6v-393q-66 -25 -129.5 -50.5t-128.5 -52.5zM367 301q35 -43 84 -73.5t106 -30.5 q96 0 147.5 73.5t51.5 233.5q-2 154 -53.5 227.5t-141.5 73.5q-59 0 -109.5 -32t-84.5 -75v-397z" />
<glyph unicode="&#x441;" horiz-adv-x="964" d="M90 494q0 121 33 218t92 165.5t145 105.5t195 37q102 0 192.5 -36t165.5 -122l-155 -166q-53 57 -98.5 80t-102.5 23q-98 0 -151.5 -82t-53.5 -217t51.5 -217t157.5 -82q104 0 205 108l158 -157q-147 -172 -373 -172q-106 0 -191.5 34.5t-145.5 101t-92 162t-32 216.5z " />
<glyph unicode="&#x442;" horiz-adv-x="911" d="M35 795v204h850v-204h-297v-795h-260v795h-293z" />
<glyph unicode="&#x443;" horiz-adv-x="1050" d="M18 999h269l149 -446l84 -283h8l90 283l152 446h258l-508 -1390h-248l131 360z" />
<glyph unicode="&#x444;" horiz-adv-x="1464" d="M86 508q0 111 40 202t109.5 157.5t165 106.5t203.5 46v330l258 96v-426q111 -6 206 -44t163.5 -104.5t107.5 -158.5t39 -205q0 -121 -40 -215t-108.5 -162t-162.5 -106.5t-203 -44.5v-306l-260 -96v399q-117 6 -212 44t-163.5 107t-105.5 164t-37 216zM334 502 q0 -78 21.5 -136.5t58.5 -99.5t86 -63.5t104 -26.5v645q-129 -10 -199.5 -99t-70.5 -220zM862 174q53 4 101.5 26.5t85 63.5t59 100.5t22.5 137.5q0 131 -69.5 220t-198.5 99v-647z" />
<glyph unicode="&#x445;" horiz-adv-x="974" d="M16 0l320 516q-72 121 -146.5 242t-148.5 241h287q41 -74 78.5 -149.5t76.5 -149.5l160 299h283l-297 -477l321 -522h-291l-184 332q-45 -82 -89 -166t-91 -166h-279z" />
<glyph unicode="&#x446;" horiz-adv-x="1161" d="M104 0v1001h256v-802h396v802h260v-802h98v-500h-231v301h-779z" />
<glyph unicode="&#x447;" horiz-adv-x="1058" d="M66 684v315h258v-282q0 -96 31.5 -143.5t131.5 -47.5q49 2 101.5 24.5t107.5 76.5v372h258v-1001h-258v418h-8q-68 -63 -143.5 -85t-130.5 -22q-190 0 -269 95.5t-79 279.5z" />
<glyph unicode="&#x448;" horiz-adv-x="1550" d="M104 0v1001h254v-800h289v803h254v-803h291v800h254v-1001h-1342z" />
<glyph unicode="&#x449;" horiz-adv-x="1585" d="M104 0v1001h254v-800h289v800h254v-800h291v800h254v-800h100v-504h-233v303h-1209z" />
<glyph unicode="&#x44a;" horiz-adv-x="1224" d="M16 795v206h545v-354h221q174 0 279.5 -85t105.5 -238q0 -162 -101 -243t-269 -81h-492v795h-289zM561 201h205q59 0 100 29.5t41 95.5q0 59 -42 91t-99 32h-205v-248z" />
<glyph unicode="&#x44b;" horiz-adv-x="1435" d="M102 0v1001h256v-362h236q168 0 271.5 -82t103.5 -242q0 -82 -27 -141t-75 -98t-114.5 -57.5t-148.5 -18.5h-502zM358 195h209q59 0 99.5 29t40.5 95q0 61 -40 93t-102 32h-207v-249zM1075 0v1001h256v-1001h-256z" />
<glyph unicode="&#x44c;" horiz-adv-x="1044" d="M109 0v1001h258v-356h223q174 0 277.5 -84.5t103.5 -238.5q0 -168 -100.5 -245t-268.5 -77h-493zM367 201h204q63 0 102.5 28.5t39.5 94.5q0 61 -39 91.5t-105 30.5h-202v-245z" />
<glyph unicode="&#x44d;" horiz-adv-x="958" d="M53 133l137 160q47 -47 96.5 -72.5t108.5 -25.5q92 0 147.5 66.5t63.5 162.5h-352v166h354q-6 98 -58 157.5t-144 59.5q-53 0 -102.5 -20.5t-100.5 -67.5l-131 166q80 74 167 104.5t183 30.5q223 0 335.5 -136t112.5 -370q0 -250 -122.5 -391t-339.5 -141 q-104 0 -192.5 35.5t-162.5 115.5z" />
<glyph unicode="&#x44e;" horiz-adv-x="1458" d="M106 0v999h256v-383h109q12 74 42 146t82 129t130 93t188 36q113 0 199 -39t143.5 -107.5t86 -163.5t28.5 -206q0 -115 -29.5 -210t-88 -165t-143.5 -108.5t-196 -38.5q-115 0 -194.5 37.5t-134 99t-83 141.5t-36.5 164h-103v-424h-256zM711 504q0 -68 11 -126.5 t35.5 -101.5t63.5 -67.5t92 -24.5t92 23.5t65 66.5t38 101.5t12 126.5q0 141 -52 225t-155 84q-102 0 -152 -85t-50 -222z" />
<glyph unicode="&#x44f;" horiz-adv-x="1067" d="M76 0l200 389q-88 33 -140 99.5t-52 181.5q0 80 27.5 142t77 103t115 62.5t140.5 21.5h519v-999h-258v358h-193l-172 -358h-264zM338 670q0 -66 41 -93.5t104 -27.5h219v254h-223q-55 0 -98 -36t-43 -97z" />
<glyph unicode="&#x451;" horiz-adv-x="1071" d="M90 500q0 119 34 215t95.5 163.5t147.5 104.5t190 37q113 0 196 -38t138 -105.5t81.5 -163t26.5 -209.5v-82h-647q10 -113 71.5 -172.5t160.5 -59.5q59 0 122.5 23t114.5 57l113 -166q-88 -70 -179 -97t-196 -27q-109 0 -196 35.5t-147 103t-93 164t-33 217.5zM197 1278 q0 55 41 95t96 40q53 0 94 -40t41 -95q0 -53 -41 -93t-94 -40q-55 0 -96 40t-41 93zM352 590h389q-2 94 -46 158.5t-148 64.5q-74 0 -130.5 -59.5t-64.5 -163.5zM631 1278q0 55 40 95t97 40q53 0 92 -40t39 -95q0 -53 -39 -93t-92 -40q-57 0 -97 40t-40 93z" />
<glyph unicode="&#x452;" horiz-adv-x="1165" d="M47 1073v156h111v123l260 100v-223h393v-156h-393v-219h6q61 59 131 86t141 27q168 0 272.5 -127t104.5 -359q0 -100 -23.5 -194t-79 -173t-147.5 -135.5t-231 -82.5l-43 208q80 20 132 55.5t82 81.5t42 102t12 120q0 147 -59.5 218t-151.5 71q-74 0 -131 -61.5 t-57 -172.5v-518h-260v1073h-111z" />
<glyph unicode="&#x453;" horiz-adv-x="909" d="M106 0v999h789v-204h-530v-795h-259zM326 1153l157 381l256 -47l-274 -379z" />
<glyph unicode="&#x454;" horiz-adv-x="966" d="M90 498q0 119 32 216t92 164.5t145 104.5t194 37q102 0 190 -37t164 -119l-145 -166q-92 102 -201 103q-84 0 -138 -56.5t-65 -152.5h359v-176h-359q14 -98 66.5 -156.5t140.5 -58.5q59 0 106.5 26.5t94.5 77.5l143 -158q-72 -86 -157.5 -126.5t-198.5 -40.5 q-104 0 -190.5 35.5t-146.5 103t-93 163t-33 216.5z" />
<glyph unicode="&#x455;" horiz-adv-x="972" d="M76 88l88 184q84 -47 165 -69.5t146 -22.5q61 0 109.5 21.5t48.5 72.5q0 57 -48 84t-134 54q-170 51 -256 119.5t-86 193.5q0 133 104 214t289 81q197 0 364 -88l-82 -189q-86 47 -157.5 60.5t-118.5 13.5q-63 0 -102 -25.5t-39 -58.5q0 -37 33.5 -63.5t121.5 -51.5 q86 -25 154.5 -52t117 -66t74 -92t25.5 -125q0 -74 -31 -131.5t-86 -95.5t-131 -58.5t-166 -20.5q-104 0 -208.5 30t-194.5 81z" />
<glyph unicode="&#x456;" horiz-adv-x="552" d="M125 1274q0 63 44 108t110 45q61 0 106 -45t45 -108q0 -61 -45 -106.5t-106 -45.5q-66 0 -110 45.5t-44 106.5zM150 0v999h258v-999h-258z" />
<glyph unicode="&#x457;" horiz-adv-x="552" d="M-68 1276q0 55 41 95t97 40q53 0 94 -40t41 -95q0 -53 -41 -93t-94 -40q-55 0 -96.5 40t-41.5 93zM152 0v999h258v-999h-258zM367 1276q0 55 39.5 95t97.5 40q53 0 92 -40t39 -95q0 -53 -39 -93t-92 -40q-57 0 -97 40t-40 93z" />
<glyph unicode="&#x458;" horiz-adv-x="555" d="M-49 -227q70 12 111.5 27.5t63 40t28 60.5t6.5 89v1009h258v-1028q0 -102 -22.5 -179t-76 -128t-139.5 -75.5t-213 -24.5zM135 1274q0 63 45 108t109 45q61 0 106 -45t45 -108q0 -61 -45 -106.5t-106 -45.5q-63 0 -108.5 45.5t-45.5 106.5z" />
<glyph unicode="&#x459;" horiz-adv-x="1542" d="M14 190q66 8 103 25.5t54 56.5t21.5 106.5t4.5 176.5v444h698v-354h223q174 0 278.5 -85t104.5 -238q0 -168 -100.5 -246t-267.5 -78h-494v801h-197v-252q0 -109 -7 -211.5t-41 -181t-105.5 -126.5t-200.5 -48q-16 0 -32.5 1t-32.5 3zM895 199h205q63 0 102 29.5t39 95.5 q0 59 -39 90.5t-102 31.5h-205v-247z" />
<glyph unicode="&#x45a;" horiz-adv-x="1556" d="M109 0v1001h253v-360h273v358h260v-358h223q176 0 278.5 -83t102.5 -236q0 -168 -101.5 -246t-267.5 -78h-493l-2 442h-273v-440h-253zM895 199h205q63 0 102 28.5t39 94.5q0 61 -39 90.5t-102 29.5h-205v-243z" />
<glyph unicode="&#x45b;" horiz-adv-x="1099" d="M20 1073v156h97v123l260 100v-223h393v-156h-393v-223h6q55 59 129 89t145 30q182 0 264.5 -107.5t82.5 -290.5v-571h-261v526q0 113 -45 166t-127 53q-92 0 -143 -63.5t-51 -167.5v-514h-260v1073h-97z" />
<glyph unicode="&#x45c;" horiz-adv-x="1021" d="M104 0v997h250v-442l369 442h276l-391 -460l393 -537h-286l-361 510v-510h-250zM381 1153l158 381l256 -47l-275 -379z" />
<glyph unicode="&#x45e;" horiz-adv-x="1050" d="M18 999h269l149 -446l84 -283h8l90 283l152 446h258l-508 -1390h-248l131 360zM229 1434h179q10 -57 43.5 -95.5t97.5 -38.5q68 0 99.5 44.5t31.5 89.5h182q0 -45 -15.5 -97.5t-51 -98.5t-96 -77t-150.5 -31q-92 0 -153.5 31t-98.5 77t-52.5 98.5t-15.5 97.5z" />
<glyph unicode="&#x45f;" horiz-adv-x="1118" d="M106 0v1001h259v-800h387v800h262v-1001h-334v-330h-234v330h-340z" />
<glyph unicode="&#x490;" horiz-adv-x="1077" d="M121 0v1333h698v273h244v-504h-672v-1102h-270z" />
<glyph unicode="&#x491;" horiz-adv-x="927" d="M102 0v999h574v220h225v-420h-545v-799h-254z" />
<glyph unicode="&#x4d9;" horiz-adv-x="1064" d="M78 494v41.5t2 39.5h645q-14 125 -74.5 178.5t-158.5 53.5q-59 0 -114.5 -20.5t-107.5 -55.5l-108 162q92 72 171 99.5t181 27.5q109 0 196 -36t148.5 -103.5t94 -163.5t32.5 -217t-33.5 -217.5t-95 -164t-148 -103t-190.5 -35.5q-113 0 -195.5 38.5t-137 108.5t-81 163 t-26.5 204zM332 410q4 -47 16 -88t35 -72t58.5 -49.5t88.5 -18.5q74 0 128.5 57.5t64.5 170.5h-391z" />
<glyph unicode="&#x2000;" horiz-adv-x="874" />
<glyph unicode="&#x2001;" horiz-adv-x="1749" />
<glyph unicode="&#x2002;" horiz-adv-x="874" />
<glyph unicode="&#x2003;" horiz-adv-x="1749" />
<glyph unicode="&#x2004;" horiz-adv-x="583" />
<glyph unicode="&#x2005;" horiz-adv-x="437" />
<glyph unicode="&#x2006;" horiz-adv-x="291" />
<glyph unicode="&#x2007;" horiz-adv-x="291" />
<glyph unicode="&#x2008;" horiz-adv-x="218" />
<glyph unicode="&#x2009;" horiz-adv-x="349" />
<glyph unicode="&#x200a;" horiz-adv-x="97" />
<glyph unicode="&#x2010;" horiz-adv-x="780" d="M113 508v233h555v-233h-555z" />
<glyph unicode="&#x2011;" horiz-adv-x="780" d="M113 508v233h555v-233h-555z" />
<glyph unicode="&#x2012;" horiz-adv-x="780" d="M113 508v233h555v-233h-555z" />
<glyph unicode="&#x2013;" horiz-adv-x="1024" d="M57 549v205h910v-205h-910z" />
<glyph unicode="&#x2014;" horiz-adv-x="2048" d="M57 553v207h1934v-207h-1934z" />
<glyph unicode="&#x2018;" horiz-adv-x="577" d="M123 1047q0 127 67.5 215t167.5 147l72 -94q-111 -72 -129 -174q59 0 101 -34t42 -106q0 -68 -43 -112.5t-108 -44.5q-76 0 -123 56t-47 147z" />
<glyph unicode="&#x2019;" horiz-adv-x="577" d="M125 1251q0 68 43 113t108 45q76 0 123 -56.5t47 -146.5q0 -127 -67.5 -215t-167.5 -147l-72 94q111 72 129 174q-59 0 -101 34t-42 105z" />
<glyph unicode="&#x201a;" horiz-adv-x="524" d="M94 129q0 66 43 112t109 46q78 0 124 -56.5t46 -148.5q0 -123 -67.5 -211t-166.5 -147q-18 23 -36.5 46t-34.5 46q53 37 84.5 79t42.5 95q-59 0 -101.5 34.5t-42.5 104.5z" />
<glyph unicode="&#x201c;" horiz-adv-x="954" d="M123 1047q0 127 67.5 215t167.5 147l72 -94q-111 -72 -129 -174q59 0 101 -34t42 -106q0 -68 -43 -112.5t-108 -44.5q-76 0 -123 56t-47 147zM512 1034q0 127 67.5 215t168.5 148l71 -94q-111 -72 -129 -175q59 0 101.5 -33.5t42.5 -105.5q0 -68 -43 -113t-109 -45 q-76 0 -123 56.5t-47 146.5z" />
<glyph unicode="&#x201d;" horiz-adv-x="954" d="M125 1251q0 68 44 113t107 45q78 0 124 -56.5t46 -146.5q0 -127 -67.5 -215t-165.5 -147l-72 94q109 72 127 174q-61 0 -102 35t-41 104zM514 1251q0 68 43 113t109 45q76 0 122 -56.5t46 -146.5q0 -127 -68 -215t-166 -147l-72 94q53 35 86 78t41 96q-59 0 -100 35 t-41 104z" />
<glyph unicode="&#x201e;" horiz-adv-x="970" d="M109 129q0 66 43 112t108 46q76 0 122 -56.5t46 -148.5q0 -123 -66.5 -211t-166.5 -147q-16 23 -35 46t-37 46q53 37 86 79t41 95q-59 0 -100 35.5t-41 103.5zM543 129q0 66 44 112t109 46q76 0 122 -56.5t46 -148.5q0 -123 -67.5 -211t-165.5 -147l-72 92q53 37 85 79 t42 95q-59 0 -101 35.5t-42 103.5z" />
<glyph unicode="&#x2026;" horiz-adv-x="1644" d="M137 133q0 74 48 114t106 40q66 0 107.5 -44t41.5 -110t-44 -109.5t-107 -43.5t-107.5 44t-44.5 109zM680 133q0 74 47 114t104 40q66 0 108 -44t42 -110t-43 -109.5t-109 -43.5q-63 0 -106 44t-43 109zM1227 133q0 74 48 114t103 40q66 0 108 -44t42 -110t-43.5 -109.5 t-106.5 -43.5t-107 44t-44 109z" />
<glyph unicode="&#x202f;" horiz-adv-x="349" />
<glyph unicode="&#x2039;" horiz-adv-x="1032" d="M256 487l291 422h237l-286 -420l286 -421h-237z" />
<glyph unicode="&#x203a;" horiz-adv-x="1032" d="M274 82l287 420l-287 422h238l291 -422l-293 -420h-236z" />
<glyph unicode="&#x205f;" horiz-adv-x="437" />
<glyph unicode="&#x20ac;" d="M117 438v160h846v-160h-420q23 -113 94.5 -164t175.5 -51q63 0 128 26.5t120 80.5l172 -189q-74 -74 -178.5 -119t-245.5 -45q-217 0 -365.5 113t-193.5 348h-133zM117 700v158h123q20 117 68 209t122 156.5t170 98.5t211 34q127 0 225.5 -37t171.5 -102l-161 -207 q-55 53 -115 75.5t-123 22.5q-111 0 -184.5 -66.5t-96.5 -183.5h435v-158h-846z" />
<glyph unicode="&#x2122;" horiz-adv-x="1634" d="M47 1182v151h629v-151h-227v-611h-175v611h-227zM733 571v762h187l114 -233l94 -197q8 14 18.5 38t22 47.5t22.5 46t17 38.5q18 37 33.5 69t30 61.5t29 61t32.5 68.5h187v-762h-172v453h-2q-31 -63 -60 -125.5t-57 -128.5q-27 -53 -52.5 -104.5t-50.5 -104.5l-102 211 l-115 242h-2v-443h-174z" />
<glyph unicode="&#x25fc;" horiz-adv-x="1003" d="M0 0v1004h1004v-1004h-1004z" />
</font>
</defs>
</svg>
